<?xml version="1.0" standalone="no"?>
<!DOCTYPE svg PUBLIC "-//W3C//DTD SVG 20010904//EN"
 "http://www.w3.org/TR/2001/REC-SVG-20010904/DTD/svg10.dtd">
<svg version="1.0" xmlns="http://www.w3.org/2000/svg"
 width="200.000000pt" height="200.000000pt" viewBox="0 0 200.000000 200.000000"
 preserveAspectRatio="xMidYMid meet">

<g transform="translate(0.000000,200.000000) scale(0.100000,-0.100000)"
fill="#000000" stroke="none">
<path d="M893 1640 c-81 -16 -140 -50 -200 -114 -32 -34 -66 -75 -75 -91 -10
-17 -27 -42 -39 -56 -22 -27 -58 -160 -59 -215 0 -17 9 -51 20 -76 21 -49 40
-151 33 -179 -3 -11 -14 -19 -24 -19 -11 0 -19 -4 -19 -10 0 -5 4 -10 9 -10 5
0 14 -14 21 -30 7 -17 21 -35 31 -41 11 -5 19 -16 19 -24 0 -7 12 -23 27 -34
14 -12 23 -24 19 -28 -3 -3 1 -18 10 -31 33 -51 0 -249 -46 -277 -13 -8 -12
-67 4 -185 7 -54 9 -105 5 -118 -5 -13 -5 -22 1 -22 5 0 14 -18 20 -40 8 -29
16 -40 30 -40 25 0 25 16 0 75 -24 55 -24 59 -7 52 9 -3 7 7 -6 35 -19 38 -39
118 -30 118 2 0 24 -20 50 -45 25 -25 79 -62 121 -83 69 -33 84 -37 157 -37
71 0 88 4 147 33 63 31 90 54 130 112 16 25 17 24 12 -30 -9 -96 -23 -196 -30
-213 -3 -9 -2 -17 4 -17 15 0 33 92 38 195 2 50 6 106 9 125 3 27 -2 45 -25
78 -34 51 -44 107 -38 201 5 63 8 71 47 111 29 30 40 48 35 59 -13 29 -16 79
-7 96 9 15 11 15 25 2 23 -24 35 -7 43 58 4 33 16 81 27 108 18 41 24 47 49
47 24 0 29 4 29 23 0 13 -9 32 -20 42 -11 10 -20 29 -20 41 0 33 -18 109 -41
169 -10 28 -21 62 -24 77 -4 15 -31 50 -60 77 -30 28 -51 51 -47 51 17 0 -98
64 -138 76 -49 15 -151 17 -217 4z m142 -365 c22 -8 32 -14 23 -15 -25 0 -65
-48 -73 -86 -7 -40 -28 -37 -51 8 -19 37 -12 57 29 85 18 11 32 21 32 22 0 0
18 -6 40 -14z m155 -62 c0 -14 -33 -33 -59 -33 -40 0 -48 16 -15 33 23 12 74
12 74 0z m-393 -13 c1 -15 -4 -20 -25 -20 -21 0 -24 2 -12 10 13 9 13 10 0 11
-10 0 -8 3 5 9 29 12 31 12 32 -10z m-50 -126 c-3 -3 -12 -4 -19 -1 -8 3 -5 6
6 6 11 1 17 -2 13 -5z m45 -30 c7 -8 25 -29 40 -46 23 -26 26 -34 15 -46 -29
-36 -117 -51 -117 -20 0 5 -7 8 -15 5 -8 -4 -17 -2 -20 3 -4 6 -14 6 -27 -1
-18 -9 -20 -18 -16 -65 3 -31 1 -49 -3 -42 -5 7 -9 45 -9 84 0 74 14 102 43
91 8 -3 20 -1 28 4 10 6 10 9 2 9 -7 0 -13 6 -13 14 0 28 71 36 92 10z m414 2
c27 -28 35 -65 19 -94 -12 -23 -14 -24 -15 -7 -1 17 -3 16 -16 -7 -16 -31 -39
-37 -48 -13 -3 8 -13 15 -23 15 -22 0 -52 42 -34 48 6 2 11 10 11 18 0 8 6 14
13 14 6 0 23 9 37 20 30 24 37 24 56 6z m-216 -15 c0 -5 -6 -11 -12 -14 -10
-3 -10 -7 -2 -18 20 -25 25 -66 9 -73 -32 -12 -63 22 -35 39 5 3 8 21 6 40 -2
28 1 35 16 35 10 0 18 -4 18 -9z m207 -141 c-1 -11 -5 -20 -9 -20 -4 0 -8 9
-8 20 0 11 4 20 9 20 6 0 9 -9 8 -20z m-588 -23 c0 -9 -2 -8 -6 1 -2 6 -10 9
-15 6 -7 -4 -8 -2 -4 5 9 13 26 5 25 -12z m175 -99 c-6 -10 -31 -11 -37 0 -2
4 -7 21 -11 37 l-8 30 31 -29 c17 -16 28 -33 25 -38z m406 31 c-13 -44 -29
-61 -53 -53 -16 5 -19 3 -13 -11 5 -13 2 -16 -10 -11 -8 3 -20 6 -25 6 -5 0
10 18 32 40 23 22 45 40 50 40 5 0 9 5 9 10 0 6 4 10 9 10 6 0 6 -12 1 -31z
m-383 -51 c-3 -8 -6 -5 -6 6 -1 11 2 17 5 13 3 -3 4 -12 1 -19z m190 -3 c52
-5 61 -9 56 -23 -3 -9 -6 -22 -8 -29 -3 -8 -15 -8 -50 2 -25 8 -51 12 -59 9
-10 -4 -86 31 -86 39 0 6 96 7 147 2z m8 -82 c3 -10 1 -19 -4 -21 -6 -2 -11
-12 -11 -22 0 -25 -20 -36 -31 -19 -11 18 -12 42 -1 35 5 -3 9 1 9 9 0 8 -4
12 -9 9 -4 -3 -8 -1 -8 5 0 10 16 19 36 20 7 1 15 -7 19 -16z"/>
<path d="M1295 850 c3 -5 8 -10 11 -10 2 0 4 5 4 10 0 6 -5 10 -11 10 -5 0 -7
-4 -4 -10z"/>
<path d="M572 374 c-7 -8 -8 -14 -3 -14 10 0 25 19 20 25 -2 1 -10 -3 -17 -11z"/>
<path d="M480 324 c-19 -7 -30 -13 -24 -13 7 -1 15 -12 18 -26 4 -14 11 -25
16 -25 14 0 12 17 -2 24 -9 4 -10 8 -2 11 26 13 46 32 38 37 -5 2 -25 -1 -44
-8z"/>
<path d="M358 266 c-8 -7 -34 -23 -59 -34 l-44 -20 43 -1 c32 -1 44 3 49 17 3
9 13 25 21 35 18 20 10 23 -10 3z"/>
<path d="M383 230 c-3 -11 -10 -20 -15 -20 -6 0 -8 -7 -4 -15 3 -8 0 -14 -6
-12 -14 2 -33 -33 -64 -120 l-23 -63 37 0 c36 0 37 1 40 40 1 22 11 60 22 85
11 25 17 52 14 60 -4 8 -2 15 2 15 5 0 9 11 9 25 0 30 -5 32 -12 5z"/>
<path d="M1505 190 c3 -5 12 -7 20 -3 21 7 19 13 -6 13 -11 0 -18 -4 -14 -10z"/>
<path d="M247 175 c-8 -20 12 -30 26 -12 7 8 19 17 27 20 8 3 1 6 -16 6 -19 1
-34 -5 -37 -14z"/>
<path d="M1603 133 c-18 -36 -18 -40 -2 -83 9 -25 24 -46 33 -48 15 -3 16 6
14 79 -3 94 -17 110 -45 52z"/>
<path d="M162 133 c-11 -16 -22 -52 -24 -80 l-5 -53 31 0 c28 0 33 5 48 46 12
34 14 54 7 80 -12 41 -31 43 -57 7z"/>
<path d="M560 131 c0 -5 7 -11 15 -15 11 -4 15 -21 15 -61 0 -42 4 -55 15 -55
10 0 13 8 9 28 -2 15 -6 43 -8 62 -2 19 -4 38 -5 43 -1 10 -41 9 -41 -2z"/>
</g>
</svg>
